<svg xmlns="http://www.w3.org/2000/svg" version="1.1" viewBox="0 0 534 104.9">
  <path id="path920" d="M170.2 78c-6 0-10.7-2.1-14.1-6.2-3.4-4.1-5.1-10.1-5-18.1 0-8 1.7-14.1 5-18.4 3.3-4.3 8-6.4 14.1-6.4 7.1-.4 13.7 3.8 16.3 10.3l-4.6 2.8c-.9-2.3-2.4-4.4-4.4-5.9-2.1-1.5-4.7-2.3-7.3-2.2-1.9 0-3.8.4-5.5 1.2-1.6.8-3 1.9-4.1 3.3-1.2 1.5-2 3.3-2.6 5.1-.6 2.2-.9 4.4-.9 6.7v7.1c0 4.9 1.1 8.8 3.4 11.5s5.5 4.2 9.6 4.2c2.7 0 5.4-.7 7.6-2.3 2.1-1.6 3.6-3.8 4.5-6.2l4.6 2.9c-1.4 3.2-3.6 5.9-6.5 7.9-3 2-6.6 3-10.2 2.9Z" fill="#363f45"/>
  <path id="path922" d="M195.2 26.8h5.4v20.8h.3c.8-1.9 2-3.5 3.6-4.7 1.9-1.3 4.1-1.9 6.3-1.8 3.2-.2 6.4 1.1 8.6 3.5 2.1 2.3 3.2 5.6 3.2 9.9V77h-5.4V55.4c0-6.3-2.7-9.5-8-9.5-1.1 0-2.1.1-3.2.4-1 .3-1.9.7-2.8 1.2-.8.5-1.5 1.2-1.9 2.1-.5.9-.8 2-.7 3V77h-5.4V26.8Z" fill="#363f45"/>
  <path id="path924" d="M259.3 77.2c-2 0-3.5-.5-4.4-1.6-.9-1.2-1.5-2.6-1.7-4.1h-.3c-.7 2-2 3.8-3.8 4.9-1.9 1.1-4.1 1.7-6.3 1.6-3.7 0-6.6-.9-8.7-2.9-2.1-2-3.2-4.8-3.1-7.8-.2-3 1.2-5.9 3.6-7.6 2.4-1.8 6.2-2.7 11.3-2.7h6.9v-3.4c.1-2.1-.6-4.2-2.1-5.7-1.3-1.3-3.4-2-6.2-2-1.9 0-3.7.4-5.3 1.4-1.5 1-2.7 2.3-3.6 3.8l-3.3-3.1c1-2 2.6-3.7 4.6-4.9 2.4-1.4 5.1-2.1 7.9-2 4.3 0 7.6 1 9.9 3.1 2.4 2.1 3.5 5 3.5 8.7v19.3h4V77h-3Zm-15.6-3.8c1.3 0 2.5-.1 3.7-.5 1-.3 2-.7 2.9-1.4.8-.5 1.4-1.2 1.9-2s.7-1.6.7-2.5v-5.8h-7.2c-3.1 0-5.4.5-6.8 1.4-1.4.8-2.2 2.3-2.1 3.9v1.4c0 1.6.6 3.1 1.9 4 1.5 1 3.3 1.5 5.1 1.4Z" fill="#363f45"/>
  <path id="path926" d="M283.5 78c-2.2 0-4.4-.4-6.5-1.3-1.9-.8-3.6-2.1-5-3.7-1.4-1.7-2.5-3.7-3.2-5.8-1.5-4.9-1.5-10.2 0-15.1.7-2.1 1.8-4.1 3.2-5.8 1.4-1.6 3.1-2.9 5-3.7 2-.9 4.2-1.3 6.5-1.3 2.2 0 4.4.4 6.4 1.3 1.9.9 3.6 2.1 5 3.7 1.5 1.7 2.6 3.7 3.3 5.8 1.5 4.9 1.5 10.2 0 15.1-.7 2.1-1.8 4.1-3.3 5.8-1.4 1.6-3.1 2.9-5 3.7-2 .9-4.2 1.3-6.4 1.3Zm0-4.9c2.7.1 5.3-.9 7.2-2.7 1.9-1.8 2.8-4.6 2.8-8.3v-5c0-3.7-.9-6.5-2.8-8.3-4.1-3.6-10.3-3.6-14.4 0-1.9 1.8-2.8 4.6-2.8 8.3v5c0 3.7.9 6.5 2.8 8.3 1.9 1.8 4.5 2.8 7.2 2.7Z" fill="#363f45"/>
  <path id="path928" d="M318.8 78c-2.8.1-5.7-.5-8.2-1.9-2.2-1.3-4.1-3-5.7-5l3.9-3.1c1.2 1.6 2.8 3 4.6 4 1.8 1 3.8 1.4 5.9 1.4 1.9.1 3.8-.4 5.4-1.5 2.3-1.9 2.6-5.4.7-7.6-.9-1-2.5-1.6-4.8-2l-2.8-.4c-1.5-.2-3-.6-4.5-1.1-1.3-.4-2.5-1.1-3.6-1.9-1-.8-1.8-1.8-2.4-3-.6-1.3-.9-2.8-.9-4.2 0-1.6.3-3.1 1-4.5.6-1.3 1.5-2.4 2.6-3.2 1.2-.9 2.6-1.6 4-1.9 1.6-.4 3.3-.7 5-.7 2.5 0 4.9.4 7.2 1.5 2 1 3.7 2.4 5.1 4.1l-3.7 3.3c-.9-1.2-2.1-2.3-3.4-3-1.7-.9-3.7-1.4-5.6-1.3-1.8-.1-3.7.4-5.1 1.5-1.2 1-1.8 2.5-1.7 4-.1 1.5.5 2.9 1.7 3.7 1.5.9 3.2 1.5 5 1.7l2.7.4c3.9.6 6.7 1.7 8.3 3.4 1.7 1.7 2.6 4.1 2.5 6.5.1 3.1-1.2 6-3.5 8-2.3 1.9-5.5 2.9-9.5 2.9Z" fill="#363f45"/>
  <path id="path930" d="M353.5 34.7v42.4h-5.7V34.7h-15.1v-5h35.9v5h-15.1Z" fill="#feb41c"/>
  <path id="path932" d="M384.6 78c-2.2 0-4.4-.4-6.5-1.3-1.9-.8-3.6-2.1-5-3.7-1.4-1.7-2.5-3.7-3.2-5.8-1.5-4.9-1.5-10.2 0-15.1.7-2.1 1.8-4.1 3.2-5.8 1.4-1.6 3.1-2.9 5-3.7 2-.9 4.2-1.3 6.5-1.3 2.2 0 4.4.4 6.4 1.3 1.9.9 3.6 2.1 5 3.7 1.5 1.7 2.6 3.7 3.3 5.8 1.5 4.9 1.5 10.2 0 15.1-.7 2.1-1.8 4.1-3.3 5.8-1.4 1.6-3.1 2.9-5 3.7-2 .9-4.2 1.3-6.4 1.3Zm0-4.9c2.7.1 5.3-.9 7.2-2.7 1.9-1.8 2.8-4.6 2.8-8.3v-5c0-3.7-.9-6.5-2.8-8.3-4.1-3.6-10.3-3.6-14.4 0-1.9 1.8-2.8 4.6-2.8 8.3v5c0 3.7.9 6.5 2.8 8.3 1.9 1.8 4.5 2.8 7.2 2.7Z" fill="#feb41c"/>
  <path id="path934" d="M422.7 78c-2.2 0-4.4-.4-6.5-1.3-1.9-.8-3.6-2.1-5-3.7-1.4-1.7-2.5-3.7-3.2-5.8-1.5-4.9-1.5-10.2 0-15.1.7-2.1 1.8-4.1 3.2-5.8 1.4-1.6 3.1-2.9 5-3.7 2-.9 4.2-1.3 6.5-1.3 2.2 0 4.4.4 6.4 1.3 1.9.9 3.6 2.1 5 3.7 1.5 1.7 2.6 3.7 3.3 5.8 1.5 4.9 1.5 10.2 0 15.1-.7 2.1-1.8 4.1-3.3 5.8-1.4 1.6-3.1 2.9-5 3.7-2 .9-4.2 1.3-6.4 1.3Zm0-4.9c2.7.1 5.3-.9 7.2-2.7 1.9-1.8 2.8-4.6 2.8-8.3v-5c0-3.7-.9-6.5-2.8-8.3-4.1-3.6-10.3-3.6-14.4 0-1.9 1.8-2.8 4.6-2.8 8.3v5c0 3.7.9 6.5 2.8 8.3 1.9 1.8 4.5 2.8 7.2 2.7Z" fill="#feb41c"/>
  <path id="path936" d="M453.3 77.2c-1.6.1-3.2-.5-4.3-1.6-1-1.1-1.5-2.6-1.5-4.1V26.8h5.4v45.5h5.2v4.8h-4.8Z" fill="#feb41c"/>
  <path id="path938" d="M466 26.8h5.4v31.9h.3l5.4-6L487 42h6.6l-13 13.9 14.3 21.2h-6.6l-11.6-17.9-5.3 5.4v12.5H466V26.8Z" fill="#feb41c"/>
  <path id="path940" d="M504.6 33.8c-.9 0-1.9-.2-2.5-.8-.5-.6-.8-1.4-.8-2.2v-.9c0-.8.2-1.6.8-2.2 1.5-1.1 3.6-1.1 5.1 0 .5.6.8 1.4.8 2.2v.9c0 .8-.2 1.6-.8 2.2-.7.6-1.6.9-2.5.8Zm-2.7 8.3h5.4v35.1h-5.4V42.1Z" fill="#feb41c"/>
  <path id="path942" d="M526.6 77.2c-1.6.1-3.2-.5-4.3-1.6-1-1.1-1.5-2.6-1.5-4.2V46.9H515v-4.8h3.3c.9.1 1.7-.2 2.4-.7.5-.7.7-1.6.7-2.5v-6.5h4.9v9.7h7.7v4.8h-7.7v25.4h7.2v4.8h-6.8Z" fill="#feb41c"/>
  <path id="path944" d="M111.4 13.8c19.2 20.1 26.3 48.9 18.5 75.6L55.2 67.7l56.2-53.9Z" fill="#feb41c"/>
  <path id="path946" d="M74.1 2.7c11.4 3.3 21.7 9.6 30 18.1L55.2 67.7 39.1 2c11.5-2.9 23.6-2.6 35 .7Z" style="fill:#5e7c88"/>
  <path id="path948" d="m41.5 11.8 13.7 55.9L0 51.6c5.7-19.7 21.5-34.9 41.5-39.8Z" style="fill:#4b5f6d"/>
  <path id="path950" d="m9.7 54.4 45.5 13.3L21 100.5C9.3 88.3 5 70.7 9.7 54.5Z" fill="#363f45"/>
  <path id="path952" d="m55.2 67.7 8.9 36.1c-12.9 3.2-26.5-.8-35.7-10.4l26.9-25.8Z" style="fill:#24221f"/>
</svg>
