<svg xmlns="http://www.w3.org/2000/svg" viewBox="0 0 139 160">
  <path d="M4.3 43.4V118l64.6 37.3 64.6-37.3V43.4L68.9 6.1 4.3 43.4z" style="fill:#fff"/>
  <path d="M134.8 80.6c-22.4.4-17.7 14.6-33.5 18.2-16 3.6-18.5-39.1-34.6-39.1s-19.6 41.5-39.6 70l-.6.8 43 24.8 65.2-37.7V80.5Z" style="fill:#36a2eb"/>
  <path d="M134.8 79.3c-7.5-9.6-12.6-20.7-23.5-20.7-19.3 0-14.2 31.5-35.6 31.5s-23.6-33.9-47.8-2C20.2 98.3 14 109.6 9.1 120.3l60.5 34.9 65.2-37.7V79.1Z" style="fill:#ffce56"/>
  <path d="M4.3 92.3C11.6 72 14.8 55.5 28.8 55.5c21.4 0 26.5 60 44.8 53.9 18.3-6.1 16.3-38.7 44.8-38.7s11 3.3 16.4 8.7v38.1l-65.2 37.7-65.3-37.6V92.3Z" style="fill:#fe6184;isolation:isolate;opacity:.8"/>
  <path d="M69.5 160 .2 120V40L69.5 0l69.3 40v80l-69.3 40ZM8.3 115.3l61.2 35.3 61.2-35.3V44.7L69.5 9.4 8.3 44.7v70.6Z" style="fill:#e7e9ed"/>
</svg>
